<svg xmlns="http://www.w3.org/2000/svg" width="16" height="16" viewBox="0 0 16 16">
  <metadata><?xpacket begin="﻿" id="W5M0MpCehiHzreSzNTczkc9d"?>
<x:xmpmeta xmlns:x="adobe:ns:meta/" x:xmptk="Adobe XMP Core 5.6-c138 79.159824, 2016/09/14-01:09:01        ">
   <rdf:RDF xmlns:rdf="http://www.w3.org/1999/02/22-rdf-syntax-ns#">
      <rdf:Description rdf:about=""/>
   </rdf:RDF>
</x:xmpmeta>
                                                                                                    
                                                                                                    
                                                                                                    
                                                                                                    
                                                                                                    
                                                                                                    
                                                                                                    
                                                                                                    
                                                                                                    
                                                                                                    
                                                                                                    
                                                                                                    
                                                                                                    
                                                                                                    
                                                                                                    
                                                                                                    
                                                                                                    
                                                                                                    
                                                                                                    
                                                                                                    
                           
<?xpacket end="w"?></metadata>
<defs>
    <style>
      .cls-1 {
        fill: #656565;
        fill-rule: evenodd;
      }
    </style>
  </defs>
  <path id="矩形_2" data-name="矩形 2" class="cls-1" d="M8,1.5A6.5,6.5,0,1,0,14.5,8,6.5,6.5,0,0,0,8,1.5Zm2.643,9.034A3.216,3.216,0,0,1,8,8.782a3.219,3.219,0,0,1-2.644,1.752A2.534,2.534,0,0,1,2.821,8l0-.055,0-.055A2.534,2.534,0,0,1,5.356,5.356,3.217,3.217,0,0,1,8,7.108a3.214,3.214,0,0,1,2.643-1.752A2.534,2.534,0,0,1,13.178,7.89V8A2.534,2.534,0,0,1,10.644,10.534Zm0-4.187a2.626,2.626,0,0,0-2.178,1.6,2.626,2.626,0,0,0,2.178,1.6,1.655,1.655,0,0,0,1.708-1.6A1.655,1.655,0,0,0,10.644,6.348ZM11.3,8.11H10.754V8.661h-0.44V8.11H9.763V7.669h0.551V7.119h0.44V7.669H11.3V8.11ZM5.356,6.348a1.655,1.655,0,0,0-1.708,1.6,1.655,1.655,0,0,0,1.708,1.6,2.626,2.626,0,0,0,2.178-1.6A2.626,2.626,0,0,0,5.356,6.348ZM6.127,8.11H4.584V7.669H6.127V8.11Z"/>
</svg>
