<svg id="arduino_1" data-name="arduino 1" width="16" height="16" xmlns="http://www.w3.org/2000/svg" viewBox="0 0 16 16"><defs><style>.cls-1{fill:#0ca1a6;}.cls-2{fill:#fff;}</style></defs><title>Arduino</title><circle class="cls-1" cx="8" cy="8" r="8"/><path class="cls-2" d="M11.42,4.9h-.19A4,4,0,0,0,8,6.89a4,4,0,0,0-3.23-2H4.54A3.24,3.24,0,0,0,1.45,8a3.25,3.25,0,0,0,3.13,3.1h.19A4.09,4.09,0,0,0,8,9.08a4.09,4.09,0,0,0,3.23,2h.23A3.24,3.24,0,0,0,14.55,8,3.25,3.25,0,0,0,11.42,4.9Z"/><path class="cls-1" d="M8.8,8s1,2,2.6,1.9a2.06,2.06,0,0,0,2-1.9,2.06,2.06,0,0,0-2-1.9C9.7,6,8.8,8,8.8,8Z"/><path class="cls-1" d="M7.3,8s-1,2-2.6,1.9A2.06,2.06,0,0,1,2.7,8a2.06,2.06,0,0,1,2-1.9C6.4,6,7.3,8,7.3,8Z"/><rect class="cls-2" x="3.8" y="7.7" width="2" height="0.7"/><rect class="cls-2" x="11" y="7" width="0.7" height="2"/><rect class="cls-2" x="10.3" y="7.7" width="2" height="0.7"/></svg>