<?xml version="1.0" encoding="utf-8"?>
<!-- Generator: Adobe Illustrator 21.1.0, SVG Export Plug-In . SVG Version: 6.00 Build 0)  -->
<svg version="1.1" id="arduino" xmlns="http://www.w3.org/2000/svg" xmlns:xlink="http://www.w3.org/1999/xlink" x="0px" y="0px"
	 viewBox="0 0 128 128" style="enable-background:new 0 0 128 128;" xml:space="preserve">
<style type="text/css">
	.st0{fill:#FFFFFF;}
	.st1{fill:#00979D;}
</style>
<circle id="椭圆_5" class="st0" cx="64" cy="64" r="64"/>
<circle id="椭圆_5_拷贝" class="st1" cx="64" cy="64" r="59"/>
<g>
	<path class="st0" d="M29.4,74.9h-3.8l-1.9-5.3h-8.3l-1.8,5.3H9.8l7.9-21h3.9L29.4,74.9z M22.8,66.7l-2.9-8.4
		c-0.1-0.3-0.2-0.7-0.3-1.3h-0.1c-0.1,0.6-0.2,1-0.3,1.3l-2.9,8.4H22.8z"/>
	<path class="st0" d="M40.6,63.2c-0.4-0.3-1-0.5-1.8-0.5c-1,0-1.8,0.5-2.5,1.4s-1,2.1-1,3.7v7.2h-3.4v-15h3.4V63h0.1
		c0.3-1.1,0.8-1.9,1.5-2.5s1.5-0.9,2.3-0.9c0.6,0,1.1,0.1,1.4,0.3V63.2z"/>
	<path class="st0" d="M56.4,74.9H53v-2.5H53c-1.1,1.9-2.8,2.9-5.1,2.9c-1.8,0-3.3-0.7-4.4-2s-1.7-3.2-1.7-5.5c0-2.5,0.6-4.5,1.8-6
		s2.9-2.2,4.9-2.2c2,0,3.5,0.8,4.4,2.4H53v-9.3h3.4V74.9z M53.1,68.1v-2c0-1.1-0.3-2-1-2.7s-1.6-1.1-2.7-1.1c-1.3,0-2.3,0.5-3,1.4
		s-1.1,2.3-1.1,3.9c0,1.5,0.3,2.7,1,3.6s1.6,1.3,2.8,1.3c1.2,0,2.1-0.4,2.8-1.3S53.1,69.4,53.1,68.1z"/>
	<path class="st0" d="M73.9,74.9h-3.4v-2.4h-0.1c-1,1.8-2.5,2.7-4.6,2.7c-3.5,0-5.3-2.1-5.3-6.4v-9H64v8.6c0,2.7,1,4,3.1,4
		c1,0,1.8-0.4,2.5-1.1s1-1.7,1-2.9v-8.6h3.4V74.9z"/>
	<path class="st0" d="M80.1,56.8c-0.6,0-1-0.2-1.4-0.5s-0.6-0.8-0.6-1.4s0.2-1,0.6-1.4s0.9-0.6,1.4-0.6c0.6,0,1.1,0.2,1.5,0.6
		s0.6,0.8,0.6,1.4c0,0.5-0.2,1-0.6,1.4S80.7,56.8,80.1,56.8z M81.8,74.9h-3.4v-15h3.4V74.9z"/>
	<path class="st0" d="M99.6,74.9h-3.4v-8.5c0-2.8-1-4.2-3-4.2c-1,0-1.9,0.4-2.6,1.2s-1,1.8-1,2.9v8.6h-3.4v-15h3.4v2.5h0.1
		c1.1-1.9,2.7-2.8,4.9-2.8c1.6,0,2.9,0.5,3.7,1.6s1.3,2.6,1.3,4.6V74.9z"/>
	<path class="st0" d="M110.4,75.3c-2.3,0-4.2-0.7-5.5-2.1c-1.4-1.4-2.1-3.3-2.1-5.6c0-2.5,0.7-4.5,2.2-5.9c1.4-1.4,3.4-2.1,5.8-2.1
		c2.3,0,4.2,0.7,5.5,2.1s2,3.3,2,5.7c0,2.4-0.7,4.3-2.1,5.8S112.7,75.3,110.4,75.3z M110.5,62.3c-1.3,0-2.4,0.5-3.1,1.4
		s-1.2,2.2-1.2,3.8c0,1.6,0.4,2.8,1.2,3.7s1.8,1.4,3.1,1.4c1.3,0,2.4-0.4,3.1-1.3c0.7-0.9,1.1-2.2,1.1-3.8c0-1.6-0.4-2.9-1.1-3.8
		C112.9,62.7,111.9,62.3,110.5,62.3z"/>
</g>
</svg>
