<?xml version="1.0" encoding="utf-8"?>
<!-- Generator: Adobe Illustrator 22.1.0, SVG Export Plug-In . SVG Version: 6.00 Build 0)  -->
<svg version="1.1" xmlns="http://www.w3.org/2000/svg" xmlns:xlink="http://www.w3.org/1999/xlink" x="0px" y="0px"
	 viewBox="0 0 16 16" style="enable-background:new 0 0 16 16;" xml:space="preserve">
<style type="text/css">
	.st0{fill:#F6F6F6;}
	.st1{fill:none;}
	.st2{fill:#00979C;}
	.st3{fill:#424242;}
</style>
<g id="outline">
	<polygon class="st0" points="15,1 1,1 1,5 3,5 3,10 1,10 1,14 10,14 10,11 12,11 12,8 15,8 	"/>
</g>
<g id="icon_x5F_bg">
	<rect class="st1" width="16" height="16"/>
	<g id="not_x5F_fg_1_">
	</g>
	<path class="st2" d="M14.3,7l-4.2,8H8.5l-2.1-4h1.9l1.1,2.4l3-6.4H14.3z"/>
	<g id="not_x5F_fg_2_">
	</g>
	<g>
		<rect x="4" y="5" class="st3" width="5" height="2"/>
		<polygon class="st3" points="14,6 14,5 10,5 10,7 11.2,7 11.7,6 		"/>
		<polygon class="st3" points="9.8,10 10.8,8 4,8 4,10 4.7,10 8.9,10 		"/>
		<rect x="8" y="2" class="st3" width="6" height="2"/>
		<polygon class="st3" points="2,11 2,13 6.3,13 5.2,11 		"/>
		<rect x="2" y="2" class="st3" width="5" height="2"/>
	</g>
	<g id="not_x5F_fg_3_">
	</g>
</g>
<g id="icon_x5F_fg">
	<path class="st0" d="M14.3,7l-4.2,8H8.5l-2.1-4h1.9l1.1,2.4l3-6.4H14.3 M16,6h-4.3l-2.4,5l-0.5-1H4.7l3.2,6h2.9L16,6L16,6z"/>
</g>
<g id="not_x5F_bg">
</g>
<g id="not_x5F_fg">
</g>
</svg>
