<?xml version="1.0" encoding="utf-8"?>
<!-- Generator: Adobe Illustrator 21.0.2, SVG Export Plug-In . SVG Version: 6.00 Build 0)  -->
<svg version="1.1" id="arduino" xmlns="http://www.w3.org/2000/svg" xmlns:xlink="http://www.w3.org/1999/xlink" x="0px" y="0px"
	 viewBox="0 0 128 128" style="enable-background:new 0 0 128 128;" xml:space="preserve">
<style type="text/css">
	.st0{fill:#FFFFFF;}
	.st1{fill:#2A7ACF;}
</style>
<circle id="椭圆_5" class="st0" cx="64" cy="64" r="64"/>
<circle id="椭圆_5_拷贝" class="st1" cx="64" cy="64" r="59"/>
<path id="椭圆_4" class="st0" d="M80,61h14v4H80V61z M85,56h4v14h-4V56z"/>
<g>
	<path class="st0" d="M88,49c8.6,0,15.5,6.5,15.5,14.5c0,0.2,0,0.3,0,0.5h7.5c0-0.3,0-0.7,0-1c0-12.7-10.3-23-23-23
		c-19.6,0-28,24-28,24h8C68,64,74.3,49,88,49z"/>
</g>
<g>
	<path class="st0" d="M103.5,63c0,0.2,0,0.3,0,0.5c0,8-6.9,14.5-15.5,14.5c-13.7,0-20-15-20-15h-8c0,0,8.4,24,28,24
		c12.7,0,23-10.3,23-23c0-0.3,0-0.7,0-1H103.5z"/>
</g>
<rect x="33" y="61" class="st0" width="14" height="4"/>
<g>
	<g>
		<path class="st0" d="M40,49c-8.6,0-15.5,6.5-15.5,14.5c0,0.2,0,0.3,0,0.5H17c0-0.3,0-0.7,0-1c0-12.7,10.3-23,23-23
			c19.6,0,28,24,28,24h-8C60,64,53.7,49,40,49z"/>
	</g>
	<g>
		<path class="st0" d="M24.5,63c0,0.2,0,0.3,0,0.5c0,8,6.9,14.5,15.5,14.5c13.7,0,20-15,20-15h8c0,0-8.4,24-28,24
			c-12.7,0-23-10.3-23-23c0-0.3,0-0.7,0-1H24.5z"/>
	</g>
</g>
</svg>
